<?xml version="1.0" encoding="UTF-8" standalone="no"?>
<!-- Created with Inkscape (http://www.inkscape.org/) -->

<svg
   width="150mm"
   height="133mm"
   viewBox="0 0 150 133"
   version="1.1"
   id="svg264"
   inkscape:version="1.2.2 (1:1.2.2+202212051550+b0a8486541)"
   sodipodi:docname="counterfactualsvg.svg"
   xmlns:inkscape="http://www.inkscape.org/namespaces/inkscape"
   xmlns:sodipodi="http://sodipodi.sourceforge.net/DTD/sodipodi-0.dtd"
   xmlns="http://www.w3.org/2000/svg"
   xmlns:svg="http://www.w3.org/2000/svg">
  <sodipodi:namedview
     id="namedview266"
     pagecolor="#ffffff"
     bordercolor="#666666"
     borderopacity="1.0"
     inkscape:showpageshadow="2"
     inkscape:pageopacity="0.0"
     inkscape:pagecheckerboard="0"
     inkscape:deskcolor="#d1d1d1"
     inkscape:document-units="mm"
     showgrid="false"
     inkscape:zoom="0.2102413"
     inkscape:cx="-575.52916"
     inkscape:cy="563.63806"
     inkscape:window-width="1848"
     inkscape:window-height="1136"
     inkscape:window-x="72"
     inkscape:window-y="27"
     inkscape:window-maximized="1"
     inkscape:current-layer="layer1" />
  <defs
     id="defs261">
    <clipPath
       clipPathUnits="userSpaceOnUse"
       id="clipPath22">
      <path
         d="M 2318,0 V 4600 H 7755 V 0 Z"
         id="path20" />
    </clipPath>
  </defs>
  <g
     inkscape:label="Layer 1"
     inkscape:groupmode="layer"
     id="layer1">
    <g
       id="g16"
       transform="matrix(0.03527778,0,0,-0.03527778,-102.66799,147.68271)">
      <g
         id="g18"
         clip-path="url(#clipPath22)">
        <path
           d="m 5156.68,2986.91 c -9.18,-6.29 -14.77,-16.64 -13.67,-27.73 l 40.39,-405.39 c 1.76,-17.31 -11.84,-32.38 -29.3,-32.38 h -221.29 c -17.42,0 -31.01,15.07 -29.29,32.38 l 40.35,405.39 c 1.09,11.09 -4.42,21.44 -13.64,27.73 -65.11,44.54 -103.2,125.59 -81.83,214.54 17.19,71.48 75.39,129.33 147.03,145.93 131.87,30.55 249.06,-68.79 249.06,-195.47 0,-68.79 -35,-128.86 -87.81,-165 m 1984.73,-173.04 c -72.5,512.93 -328.99,882.11 -832.74,1052.46 -211.05,71.33 -427.03,92.26 -645.66,82.62 -59.53,-2.62 -119.26,-7.54 -179.3,-14.11 -167.97,-18.63 -318.55,-72.89 -447.5,-151.95 -128.91,79.06 -279.53,133.32 -447.5,151.95 -59.96,6.57 -119.73,11.49 -179.26,14.11 -218.59,9.64 -434.57,-11.29 -645.66,-82.62 -503.75,-170.35 -760.27,-539.53 -832.7,-1052.46 -8,-55.78 -10.58,-110.12 -8.43,-163.52 6.75,-178.36 66.99,-343.79 167.69,-499.76 60.74,-93.68 119.1,-189.22 182.85,-280.94 210.59,-303.79 236.96,-628.52 114.81,-970.861 -29.65,-83.75 -64.3,-165.469 -95.51,-248.707 -28.48,-76.023 307.58,-190.742 694.77,-190.742 387.26,0 585.7,75.07 605,195.699 18.75,116.91 43.55,226.801 114.14,324.262 43.55,60.079 97.93,96.129 166.83,105.389 19.38,-0.12 38.71,0.19 58.01,0.47 34.96,0.19 69.96,0.7 104.96,1.21 35.04,-0.51 70.08,-1.02 105,-1.21 19.3,-0.28 38.67,-0.59 57.97,-0.47 68.87,-9.26 123.28,-45.31 166.87,-105.389 70.63,-97.461 97.93,-206.961 114.11,-324.262 14.8,-106.719 289.45,-196.797 680.93,-196.797 391.53,0 650.86,111.797 618.87,191.84 -32.97,82.539 -65.86,164.957 -95.47,248.707 -122.19,342.341 -95.78,667.071 114.81,970.861 63.71,91.72 122.11,187.26 182.81,280.94 100.7,155.97 160.94,321.4 167.77,499.76 2.11,53.4 -0.5,107.74 -8.47,163.52"
           style="fill:#99cce7;fill-opacity:1;fill-rule:nonzero;stroke:none"
           id="path24" />
        <path
           d="m 5250.62,1086.33 c 33.21,3.16 66.26,8.36 97.9,18.47 31.48,9.93 61.71,25.36 85.07,48.44 23.52,22.85 38.83,52.85 46.14,84.61 7.42,31.8 8.32,65 5.11,97.74 -3.16,32.38 -10.97,65.7 -8.94,100.46 1.01,34.65 15.98,69.97 41.33,94.26 11.72,12.5 27.65,22.78 39.53,31.92 12.19,9.45 20.23,21.99 19.1,35.11 -1.17,13.32 -10.04,26.76 -20.35,38.64 -10.35,11.99 -22.42,23.08 -34.81,33.98 l -12.03,10.63 15.28,5.66 c 23.2,8.55 45.46,21.29 55.66,41.33 10.59,19.84 8.24,45.15 2.89,69.49 -5.51,24.61 -13.32,50.39 -17.38,77.15 -2.35,13.28 -3.32,27.66 -1.25,42.5 2.07,14.92 9.76,29.76 19.84,40.47 20.63,21.01 44.3,33.51 67.11,46.68 22.97,13.04 45.98,24.76 67.62,38.16 20.82,13.59 41.79,29.61 49.61,49.26 8.24,19.26 -1.17,42.5 -13.87,63.48 -59.02,83.39 -124.49,167.26 -185.63,251.48 -32.03,41.37 -60.54,89.14 -76.17,140.82 -16.17,51.56 -20.27,106.88 -12.89,160.2 1.8,13.35 4.46,26.52 7.35,39.68 l 7.34,37.97 c 2.34,12.7 5.16,25.31 7.07,38.05 l 4.02,38.51 c 3.6,25.59 3.91,51.41 4.22,77.23 1.45,25.86 -1.05,51.6 -2.58,77.38 -7.3,103.05 -32.53,204.89 -73.08,300.36 -81.1,191.17 -222.81,355.93 -399.53,468.04 180.58,-105.47 329.37,-268.28 414.57,-461.52 42.85,-96.25 70.43,-199.69 79.68,-305.16 1.72,-26.36 4.42,-52.73 3.13,-79.26 -0.2,-26.48 -0.39,-52.93 -3.91,-79.25 l -3.9,-39.53 c -1.88,-13.09 -4.69,-26.1 -7.03,-39.11 l -7.35,-39.06 c -2.65,-12.42 -5.08,-24.88 -6.72,-37.46 -6.64,-50.23 -2.5,-101.64 12.89,-149.8 15.2,-48.6 41.18,-92.04 73.29,-133.09 l 93.47,-125.94 46.53,-63.12 c 15.27,-21.21 31.48,-41.25 46.13,-64.81 6.99,-11.91 13.51,-24.45 17.38,-38.86 3.95,-14.22 4.06,-31.29 -2.07,-45.94 -5.86,-14.81 -15.86,-26.21 -26.25,-35.63 -10.39,-9.57 -21.56,-17.5 -32.97,-24.72 -22.85,-13.99 -46.56,-25.86 -69.1,-38.6 -22.46,-12.54 -45.51,-25.35 -61.72,-41.83 -16.21,-16.1 -17.38,-39.18 -13.28,-64.26 3.67,-25.04 10.94,-49.49 16.8,-75.94 5.31,-25.86 8.63,-56.52 -6.14,-83.71 -14.84,-27.11 -42.22,-40.9 -67.42,-49.77 l 3.24,16.22 c 12.43,-11.37 24.81,-23.09 36.06,-36.49 10.86,-13.36 21.99,-28.9 23.79,-49.3 1.44,-21.05 -12.15,-39.1 -26.17,-49.37 -14.77,-10.82 -27.31,-18.4 -38.83,-30.08 -23.24,-21.83 -36.68,-51.76 -38.36,-83.94 -2.66,-32.15 4.69,-64.69 6.91,-98.64 2.39,-33.67 0.51,-68.04 -8.08,-100.97 -8.56,-32.85 -25.63,-64.03 -50.78,-87.11 -24.93,-23.24 -56.33,-38.13 -88.48,-47.19 -32.38,-9.02 -65.66,-13.01 -98.99,-14.92"
           style="fill:#ffffff;fill-opacity:1;fill-rule:nonzero;stroke:none"
           id="path26" />
        <path
           d="m 5393.36,445.551 c -9.53,133.121 -48.98,255.578 -128.59,365.23 -57.31,78.949 -130.98,121.207 -227.86,121.52 -87.22,0.32 -174.57,-1.91 -261.83,-2.5 -41.06,-0.313 -82.27,-1.36 -123.17,1.289 -211.17,13.75 -297.57,115.67 -265.74,323.83 12.93,84.73 3.21,145.78 -75.15,197.66 -69.65,46.05 -23.6,96.29 29.57,144.06 -88.64,31.06 -87.43,87.7 -70.28,154.38 34.34,133.71 27.42,146.09 -94.57,212.53 -15.82,8.6 -31.72,16.92 -47.19,26.18 -89.64,53.82 -98.16,96.72 -36.52,179.53 69.02,92.62 138.09,185.15 206.52,278.2 77.47,105.47 104.3,224.22 74.57,350.51 -140.5,596.52 300.24,1260.15 1024.07,1340.66 315.11,35.08 626.6,25.08 928.9,-77.18"
           style="fill:none;stroke:#0085b2;stroke-width:38.6167;stroke-linecap:round;stroke-linejoin:round;stroke-miterlimit:10;stroke-dasharray:none;stroke-opacity:1"
           id="path28" />
        <path
           d="m 4679.1,445.551 c 9.53,133.121 49.02,255.578 128.63,365.23 57.31,78.949 130.98,121.207 227.82,121.52 87.26,0.32 174.57,-1.91 261.83,-2.5 41.06,-0.313 82.31,-1.36 123.17,1.289 211.17,13.75 297.57,115.67 265.78,323.83 -12.93,84.73 -3.21,145.78 75.15,197.66 69.61,46.05 23.6,96.29 -29.6,144.06 88.67,31.06 87.42,87.7 70.31,154.38 -34.34,133.71 -27.42,146.09 94.53,212.53 15.82,8.6 31.76,16.92 47.15,26.18 89.72,53.82 98.24,96.72 36.6,179.53 -69.02,92.62 -138.13,185.15 -206.52,278.2 -77.5,105.47 -104.34,224.22 -74.61,350.51 140.5,596.52 -300.2,1260.15 -1024.03,1340.66 -315.11,35.08 -626.6,25.08 -928.9,-77.18"
           style="fill:none;stroke:#0085b2;stroke-width:38.6167;stroke-linecap:round;stroke-linejoin:round;stroke-miterlimit:10;stroke-dasharray:none;stroke-opacity:1"
           id="path30" />
        <path
           d="m 4821.84,1086.33 c -33.29,1.91 -66.61,5.9 -98.99,14.92 -32.19,9.06 -63.51,23.95 -88.47,47.19 -25.16,23.08 -42.23,54.26 -50.79,87.11 -8.59,32.93 -10.43,67.3 -8.12,100.97 2.26,33.95 9.65,66.49 6.99,98.64 -1.68,32.18 -15.19,62.11 -38.4,83.94 -11.52,11.68 -24.06,19.22 -38.83,30.08 -14.02,10.27 -27.61,28.32 -26.13,49.37 1.76,20.4 12.89,35.94 23.75,49.3 11.25,13.4 23.67,25.12 36.1,36.49 l 3.24,-16.25 c -25.2,8.9 -52.54,22.65 -67.39,49.64 -14.72,27.11 -11.52,57.78 -6.25,83.6 5.83,26.4 13.13,50.82 16.8,75.82 4.06,25 3.17,48.16 -12.85,64.26 -16.13,16.48 -39.06,29.33 -61.45,41.95 -22.53,12.58 -46.21,24.53 -68.98,38.4 -22.11,14.69 -46.45,30.58 -59.49,59.69 -6.25,14.49 -6.6,31.56 -2.85,45.85 3.71,14.5 10.11,27.11 17.03,39.07 14.53,23.59 30.78,43.59 46.01,64.8 l 46.45,62.97 93.28,125.7 c 32.07,41.1 58.28,84.14 73.75,132.62 15.63,47.97 20.08,99.34 13.79,149.49 -1.68,12.54 -3.87,25.04 -6.6,37.39 l -7.35,38.9 -7.22,38.99 -3.91,39.49 c -1.17,13.12 -3.08,26.29 -3.55,39.45 l -0.55,39.61 c -1.29,26.49 0.98,52.81 2.85,79.18 8.95,105.2 36.09,208.56 78.59,304.77 84.38,193.16 232.08,356.32 411.96,462.3 -175.94,-112.62 -316.64,-277.69 -396.96,-468.75 -40.15,-95.39 -64.96,-197.11 -71.95,-300 -1.64,-25.74 -3.75,-51.48 -2.34,-77.23 l 0.78,-38.63 c 0.55,-12.89 2.5,-25.7 3.67,-38.51 l 4.02,-38.4 7.27,-37.93 7.38,-38.05 c 2.97,-13.08 5.35,-26.29 7.23,-39.61 7.03,-53.28 2.54,-108.47 -13.91,-159.88 -15.82,-51.49 -44.65,-98.99 -76.6,-140.2 -60.94,-84.02 -126.44,-167.73 -185.15,-251.01 -12.5,-21.02 -21.53,-44.1 -12.93,-63.24 8.12,-19.61 29.18,-35.43 49.92,-48.99 21.72,-13.32 44.69,-25.08 67.61,-38.12 22.74,-13.09 46.37,-25.75 66.88,-46.68 10.12,-10.86 17.62,-25.78 19.49,-40.67 1.99,-14.76 0.94,-29.06 -1.33,-42.34 -4.1,-26.68 -11.99,-52.38 -17.46,-76.91 -5.27,-24.42 -7.58,-49.61 3.09,-69.38 10.15,-20 32.42,-32.7 55.58,-41.25 l 15.28,-5.63 -12.03,-10.66 c -12.39,-10.9 -24.46,-21.99 -34.85,-33.98 -10.27,-11.88 -19.18,-25.32 -20.35,-38.64 -1.13,-13.12 6.92,-25.66 19.06,-35.11 11.92,-9.11 27.86,-19.42 39.57,-31.88 25.32,-24.33 40.36,-59.65 41.33,-94.3 2.03,-34.76 -5.82,-68.08 -8.94,-100.46 -3.17,-32.74 -2.27,-65.94 5.11,-97.74 7.31,-31.76 22.66,-61.76 46.18,-84.57 23.32,-23.12 53.59,-38.55 85.04,-48.48 31.64,-10.11 64.72,-15.31 97.89,-18.47"
           style="fill:#ffffff;fill-opacity:1;fill-rule:nonzero;stroke:none"
           id="path32" />
      </g>
    </g>
  </g>
</svg>
